<?xml version="1.0" standalone="no"?>
<!DOCTYPE svg PUBLIC "-//W3C//DTD SVG 20010904//EN"
 "http://www.w3.org/TR/2001/REC-SVG-20010904/DTD/svg10.dtd">
<svg version="1.0" xmlns="http://www.w3.org/2000/svg"
 width="500.000000pt" height="500.000000pt" viewBox="0 0 500.000000 500.000000"
 preserveAspectRatio="xMidYMid meet">
<metadata>
Created by potrace 1.11, written by Peter Selinger 2001-2013
</metadata>
<g transform="translate(0.000000,500.000000) scale(0.100000,-0.100000)"
fill="#000000" stroke="none">
<path d="M316 4979 c-62 -15 -153 -68 -197 -116 -22 -24 -55 -74 -72 -111
l-32 -67 0 -2186 0 -2185 37 -76 c45 -91 103 -147 196 -191 l67 -32 2186 0
2185 0 76 37 c91 45 147 103 191 196 l32 67 0 2185 0 2185 -32 67 c-44 93
-100 151 -191 196 l-76 37 -2165 2 c-1285 0 -2182 -3 -2205 -8z m2872 -785
c31 -8 91 -26 132 -39 41 -13 138 -42 215 -65 77 -23 174 -52 215 -65 41 -13
131 -40 200 -60 117 -34 170 -51 390 -118 47 -15 125 -38 175 -52 49 -15 95
-31 102 -37 38 -31 -6 -91 -86 -118 -101 -33 -151 -145 -151 -341 l0 -118 93
-29 c108 -35 199 -75 217 -97 21 -25 -3 -40 -110 -65 -52 -12 -98 -26 -102
-29 -4 -4 6 -26 21 -50 42 -63 63 -157 62 -281 -1 -199 -54 -365 -141 -444
l-40 -36 25 -10 c14 -5 37 -13 51 -16 14 -4 29 -16 33 -28 14 -37 -9 -64 -86
-103 -75 -36 -98 -61 -131 -136 -21 -50 -34 -160 -27 -244 l7 -82 109 -36
c132 -42 193 -74 197 -102 4 -26 29 -18 -303 -98 -148 -36 -513 -124 -810
-197 -297 -72 -567 -137 -600 -145 -33 -7 -204 -49 -380 -92 l-320 -77 -55 17
c-120 39 -857 278 -1219 396 -375 122 -385 126 -427 168 -91 92 -138 239 -139
440 0 142 24 236 80 309 19 26 35 48 35 49 0 2 -25 9 -55 16 -64 14 -74 25
-49 53 27 29 65 47 189 88 l110 37 0 134 c0 199 -32 271 -147 326 -77 37 -103
63 -94 97 5 21 20 29 106 56 55 17 100 33 100 36 0 3 -11 17 -25 32 -39 41
-81 138 -99 227 -20 97 -23 260 -6 340 25 122 107 229 199 261 39 13 76 19
1056 155 121 17 328 46 460 64 132 19 339 47 460 64 121 17 279 39 350 50 72
10 136 17 143 15 7 -2 38 -11 70 -20z"/>
<path d="M664 3690 c-24 -10 -54 -50 -73 -97 -8 -20 -13 -78 -13 -155 1 -138
20 -223 66 -283 32 -41 54 -55 121 -71 28 -6 181 -49 340 -94 160 -45 319 -90
355 -100 73 -20 170 -47 550 -154 146 -41 266 -73 268 -71 2 2 7 117 11 257 5
172 4 257 -4 264 -5 7 -138 53 -295 103 -157 51 -323 105 -370 121 -250 86
-893 290 -912 289 -13 0 -33 -4 -44 -9z"/>
<path d="M4275 3575 c-33 -7 -139 -28 -235 -48 -96 -20 -274 -57 -395 -82
-121 -25 -263 -55 -315 -65 -52 -10 -194 -39 -315 -65 -121 -25 -313 -64 -426
-87 l-206 -41 -7 -206 c-11 -348 -12 -316 10 -314 10 1 226 54 479 117 825
206 1427 356 1433 356 3 0 2 42 -1 93 -8 116 6 253 32 312 11 25 17 44 13 44
-4 -1 -34 -7 -67 -14z"/>
<path d="M3955 2774 c-176 -58 -387 -127 -470 -154 -410 -132 -765 -249 -772
-253 -8 -5 2 -515 10 -523 4 -5 116 23 207 51 25 7 106 30 180 50 74 21 178
50 230 65 52 15 156 44 230 65 74 20 171 48 215 60 44 13 172 49 285 79 113
31 221 64 240 74 26 13 43 34 68 82 73 144 60 432 -23 486 -47 31 -73 26 -400
-82z"/>
<path d="M660 2755 c0 -3 10 -34 21 -68 19 -52 22 -86 23 -216 l1 -154 45 -12
c134 -37 1881 -467 1883 -464 4 6 -14 513 -19 518 -3 4 -84 21 -624 131 -135
27 -344 70 -465 96 -121 25 -263 54 -315 64 -52 11 -194 40 -314 65 -231 47
-236 48 -236 40z"/>
<path d="M522 2037 c-72 -42 -101 -203 -68 -382 23 -126 72 -191 162 -214 27
-7 85 -23 129 -36 44 -13 139 -39 210 -59 72 -20 225 -62 340 -95 116 -32 318
-89 450 -126 132 -36 275 -77 318 -90 55 -16 80 -20 82 -12 3 7 6 126 7 266
l3 255 -390 127 c-214 70 -559 182 -765 250 -206 67 -393 124 -415 126 -22 2
-50 -2 -63 -10z"/>
<path d="M4135 1925 c-33 -7 -139 -28 -235 -48 -96 -20 -274 -57 -395 -82
-121 -25 -242 -50 -270 -55 -126 -22 -298 -63 -385 -92 -68 -23 -115 -32 -165
-33 -57 0 -421 -68 -433 -80 -4 -4 -24 -517 -20 -520 2 -2 215 50 473 114 259
65 693 173 965 241 l495 123 0 156 c1 148 8 201 40 274 4 9 3 16 -1 16 -5 -1
-36 -7 -69 -14z"/>
</g>
</svg>
